<svg width="512" height="512" viewBox="0 0 512 512" fill="none" xmlns="http://www.w3.org/2000/svg">
<path d="M297.824 129.892C293.115 126.858 287.854 124.781 282.342 123.782C276.83 122.782 271.175 122.879 265.7 124.066C260.226 125.254 255.039 127.509 250.436 130.702C245.834 133.896 241.906 137.965 238.878 142.678L150.668 279.743L108.38 231.6C104.717 227.281 100.232 223.735 95.1839 221.169C90.1363 218.602 84.6282 217.067 78.9808 216.652C73.3334 216.237 67.66 216.951 62.2915 218.752C56.923 220.553 51.967 223.406 47.7127 227.143C43.4583 230.88 39.9908 235.426 37.5125 240.518C35.0342 245.609 33.5947 251.143 33.2779 256.797C32.9612 262.451 33.7737 268.111 35.6679 273.447C37.5621 278.784 40.5 283.689 44.3104 287.878L123.912 378.5C131.433 387.085 141.998 392.213 153.19 392.938L159.112 392.894C165.694 392.404 172.072 390.392 177.744 387.019C183.417 383.645 188.229 379 191.802 373.451L310.589 188.837C313.621 184.129 315.697 178.869 316.696 173.358C317.696 167.848 317.6 162.194 316.415 156.721C315.23 151.247 312.978 146.061 309.788 141.457C306.598 136.854 302.533 132.924 297.824 129.892Z" fill="#2284F0"/>
<path d="M235.617 324.024L283.607 249.44L320.521 291.464L408.73 154.4C411.759 149.687 415.687 145.617 420.289 142.424C424.891 139.23 430.078 136.975 435.553 135.788C441.028 134.6 446.683 134.503 452.195 135.503C457.707 136.503 462.968 138.579 467.677 141.614C472.385 144.646 476.451 148.576 479.64 153.179C482.83 157.782 485.082 162.969 486.267 168.442C487.453 173.916 487.548 179.569 486.549 185.08C485.549 190.59 483.474 195.85 480.441 200.558L361.654 385.172C358.082 390.722 353.27 395.366 347.597 398.74C341.925 402.114 335.546 404.125 328.965 404.615L323.043 404.659C311.851 403.935 301.286 398.806 293.765 390.221L235.617 324.024Z" fill="#0E62BD"/>
</svg>
