<svg width="1946" height="424" viewBox="0 0 1946 424" fill="none" xmlns="http://www.w3.org/2000/svg">
<path d="M1051.2 337.073C1050.4 340.281 1049.27 342.888 1047.82 344.893C1046.49 346.764 1044.44 348.234 1041.66 349.304C1038.87 350.239 1035.3 350.841 1030.92 351.108C1026.55 351.509 1020.99 351.709 1014.23 351.709C1006.68 351.709 1000.58 351.509 995.946 351.108C991.441 350.841 987.864 350.239 985.214 349.304C982.564 348.234 980.643 346.764 979.451 344.893C978.258 342.888 977.331 340.281 976.668 337.073L935.529 172.668H935.132L896.179 337.073C895.516 340.148 894.589 342.687 893.396 344.692C892.204 346.563 890.283 348.034 887.633 349.103C885.115 350.172 881.604 350.841 877.099 351.108C872.727 351.509 866.897 351.709 859.61 351.709C851.926 351.709 845.765 351.509 841.128 351.108C836.623 350.841 833.045 350.239 830.396 349.304C827.746 348.234 825.825 346.764 824.632 344.893C823.44 342.888 822.446 340.281 821.651 337.073L763.221 110.715C762.029 105.903 761.367 102.161 761.234 99.4874C761.102 96.6805 761.83 94.5419 763.42 93.0716C765.143 91.6013 767.859 90.7325 771.569 90.4652C775.411 90.0642 780.711 89.8637 787.468 89.8637C793.695 89.8637 798.597 89.9974 802.175 90.2647C805.884 90.3984 808.667 90.8662 810.522 91.6682C812.377 92.3365 813.635 93.4058 814.298 94.8761C814.96 96.2127 815.49 98.1508 815.888 100.69L861.002 299.38H861.2L908.103 102.094C908.633 99.5543 909.295 97.4825 910.09 95.8785C911.018 94.2746 912.475 93.0716 914.463 92.2696C916.582 91.334 919.431 90.7325 923.008 90.4652C926.586 90.0642 931.355 89.8637 937.318 89.8637C943.677 89.8637 948.712 89.9974 952.422 90.2647C956.264 90.532 959.179 91.1335 961.166 92.0691C963.286 92.8711 964.81 94.0741 965.738 95.678C966.665 97.282 967.394 99.4206 967.924 102.094L1016.42 299.38H1016.81L1061.93 101.292C1062.33 99.1533 1062.86 97.3488 1063.52 95.8785C1064.18 94.2746 1065.44 93.0716 1067.29 92.2696C1069.15 91.334 1071.8 90.7325 1075.24 90.4652C1078.69 90.0642 1083.52 89.8637 1089.75 89.8637C1095.58 89.8637 1100.09 90.0642 1103.27 90.4652C1106.58 90.7325 1108.96 91.6013 1110.42 93.0716C1111.88 94.5419 1112.47 96.7473 1112.21 99.6879C1112.08 102.495 1111.41 106.371 1110.22 111.317L1051.2 337.073Z" fill="white"/>
<path d="M1315.72 343.69C1315.72 345.026 1315.32 346.229 1314.53 347.299C1313.73 348.234 1312.41 349.036 1310.55 349.705C1308.7 350.373 1306.11 350.841 1302.8 351.108C1299.62 351.509 1295.65 351.709 1290.88 351.709C1285.97 351.709 1281.87 351.509 1278.55 351.108C1275.37 350.841 1272.86 350.373 1271 349.705C1269.15 349.036 1267.82 348.234 1267.03 347.299C1266.23 346.229 1265.83 345.026 1265.83 343.69V241.638C1265.83 232.95 1265.17 226.133 1263.85 221.188C1262.65 216.242 1260.87 212.032 1258.48 208.556C1256.1 204.948 1252.98 202.207 1249.14 200.336C1245.43 198.331 1241.06 197.329 1236.02 197.329C1229.66 197.329 1223.24 199.668 1216.75 204.346C1210.25 209.024 1203.5 215.841 1196.47 224.796V343.69C1196.47 345.026 1196.08 346.229 1195.28 347.299C1194.49 348.234 1193.1 349.036 1191.11 349.705C1189.25 350.373 1186.74 350.841 1183.56 351.108C1180.38 351.509 1176.34 351.709 1171.43 351.709C1166.53 351.709 1162.49 351.509 1159.31 351.108C1156.13 350.841 1153.55 350.373 1151.56 349.705C1149.7 349.036 1148.38 348.234 1147.58 347.299C1146.79 346.229 1146.39 345.026 1146.39 343.69V80.0395C1146.39 78.7028 1146.79 77.4999 1147.58 76.4306C1148.38 75.3613 1149.7 74.4925 1151.56 73.8241C1153.55 73.0222 1156.13 72.4207 1159.31 72.0197C1162.49 71.6187 1166.53 71.4182 1171.43 71.4182C1176.34 71.4182 1180.38 71.6187 1183.56 72.0197C1186.74 72.4207 1189.25 73.0222 1191.11 73.8241C1193.1 74.4925 1194.49 75.3613 1195.28 76.4306C1196.08 77.4999 1196.47 78.7028 1196.47 80.0395V178.883C1205.09 170.329 1213.83 163.98 1222.71 159.836C1231.72 155.559 1241.06 153.42 1250.73 153.42C1262.79 153.42 1272.92 155.425 1281.14 159.435C1289.48 163.445 1296.18 168.925 1301.21 175.876C1306.38 182.826 1310.09 190.98 1312.34 200.336C1314.59 209.559 1315.72 220.787 1315.72 234.019V343.69Z" fill="white"/>
<path d="M1516.05 344.291C1516.05 346.162 1515.39 347.633 1514.06 348.702C1512.74 349.771 1510.62 350.507 1507.7 350.907C1504.92 351.442 1500.75 351.709 1495.18 351.709C1489.22 351.709 1484.85 351.442 1482.06 350.907C1479.41 350.507 1477.49 349.771 1476.3 348.702C1475.24 347.633 1474.71 346.162 1474.71 344.291V330.056C1467.42 337.942 1459.08 344.091 1449.67 348.502C1440.39 352.912 1430.06 355.118 1418.67 355.118C1409.26 355.118 1400.58 353.848 1392.63 351.308C1384.81 348.903 1377.99 345.294 1372.16 340.482C1366.46 335.536 1362.02 329.455 1358.85 322.237C1355.67 315.019 1354.08 306.598 1354.08 296.974C1354.08 286.549 1356.06 277.527 1360.04 269.908C1364.14 262.155 1370.17 255.806 1378.12 250.861C1386.2 245.782 1396.21 242.039 1408.13 239.633C1420.06 237.227 1433.9 236.024 1449.67 236.024H1466.96V225.197C1466.96 219.584 1466.36 214.705 1465.17 210.561C1464.11 206.284 1462.26 202.742 1459.61 199.935C1457.09 197.128 1453.64 195.056 1449.27 193.72C1445.03 192.383 1439.73 191.715 1433.37 191.715C1425.03 191.715 1417.54 192.651 1410.91 194.522C1404.42 196.393 1398.66 198.465 1393.62 200.737C1388.59 203.009 1384.35 205.081 1380.91 206.952C1377.59 208.824 1374.88 209.759 1372.76 209.759C1371.3 209.759 1369.97 209.292 1368.78 208.356C1367.72 207.42 1366.79 206.084 1366 204.346C1365.34 202.608 1364.81 200.47 1364.41 197.93C1364.01 195.391 1363.81 192.584 1363.81 189.509C1363.81 185.366 1364.14 182.091 1364.81 179.685C1365.47 177.279 1366.73 175.141 1368.58 173.269C1370.44 171.264 1373.68 169.126 1378.32 166.854C1382.96 164.448 1388.39 162.242 1394.62 160.237C1400.85 158.232 1407.6 156.628 1414.89 155.425C1422.31 154.089 1429.93 153.42 1437.74 153.42C1451.66 153.42 1463.51 154.824 1473.32 157.631C1483.26 160.304 1491.4 164.514 1497.76 170.262C1504.12 175.876 1508.76 183.16 1511.68 192.116C1514.59 201.071 1516.05 211.697 1516.05 223.994V344.291ZM1466.96 267.702H1447.88C1439.8 267.702 1432.91 268.304 1427.21 269.507C1421.51 270.71 1416.88 272.514 1413.3 274.92C1409.72 277.326 1407.07 280.267 1405.35 283.742C1403.76 287.083 1402.97 290.96 1402.97 295.371C1402.97 302.856 1405.28 308.737 1409.92 313.014C1414.69 317.291 1421.25 319.43 1429.6 319.43C1436.62 319.43 1443.04 317.625 1448.87 314.016C1454.84 310.408 1460.86 305.128 1466.96 298.177V267.702Z" fill="white"/>
<path d="M1744.6 251.663C1744.6 267.569 1742.88 281.937 1739.43 294.769C1736.12 307.467 1731.22 318.294 1724.73 327.249C1718.23 336.205 1710.15 343.088 1700.48 347.9C1690.81 352.712 1679.74 355.118 1667.29 355.118C1662.12 355.118 1657.35 354.583 1652.98 353.514C1648.74 352.578 1644.57 351.108 1640.46 349.103C1636.48 346.964 1632.51 344.358 1628.54 341.284C1624.56 338.21 1620.45 334.601 1616.21 330.457V414.665C1616.21 416.001 1615.82 417.204 1615.02 418.274C1614.23 419.343 1612.83 420.212 1610.85 420.88C1608.99 421.682 1606.48 422.284 1603.3 422.685C1600.12 423.085 1596.07 423.286 1591.17 423.286C1586.27 423.286 1582.23 423.085 1579.05 422.685C1575.87 422.284 1573.29 421.682 1571.3 420.88C1569.44 420.212 1568.12 419.343 1567.32 418.274C1566.53 417.204 1566.13 416.001 1566.13 414.665V164.849C1566.13 163.512 1566.46 162.376 1567.12 161.44C1567.79 160.371 1568.91 159.502 1570.5 158.834C1572.23 158.165 1574.41 157.698 1577.06 157.43C1579.84 157.029 1583.29 156.829 1587.4 156.829C1591.37 156.829 1594.68 157.029 1597.33 157.43C1600.12 157.698 1602.3 158.165 1603.89 158.834C1605.61 159.502 1606.81 160.371 1607.47 161.44C1608.13 162.376 1608.46 163.512 1608.46 164.849V185.901C1613.63 180.554 1618.66 175.876 1623.57 171.866C1628.6 167.722 1633.7 164.314 1638.87 161.641C1644.04 158.834 1649.34 156.762 1654.77 155.425C1660.33 154.089 1666.23 153.42 1672.46 153.42C1685.44 153.42 1696.5 156.027 1705.65 161.24C1714.79 166.319 1722.21 173.336 1727.91 182.292C1733.73 191.247 1737.97 201.673 1740.62 213.569C1743.27 225.465 1744.6 238.163 1744.6 251.663ZM1692.53 255.272C1692.53 247.653 1691.93 240.368 1690.74 233.418C1689.68 226.334 1687.76 220.051 1684.98 214.571C1682.33 209.091 1678.75 204.747 1674.25 201.539C1669.87 198.198 1664.37 196.527 1657.75 196.527C1654.44 196.527 1651.13 197.061 1647.81 198.131C1644.63 199.066 1641.32 200.67 1637.88 202.943C1634.56 205.215 1631.12 208.155 1627.54 211.764C1623.96 215.373 1620.19 219.851 1616.21 225.197V284.143C1623.24 293.098 1629.93 300.049 1636.29 304.994C1642.65 309.806 1649.27 312.212 1656.16 312.212C1662.65 312.212 1668.15 310.541 1672.66 307.2C1677.29 303.858 1681.07 299.514 1683.98 294.168C1686.9 288.687 1689.02 282.539 1690.34 275.722C1691.8 268.905 1692.53 262.088 1692.53 255.272Z" fill="white"/>
<path d="M1885.11 350.507L1863.64 413.863C1862.45 417.204 1859.21 419.61 1853.91 421.081C1848.61 422.551 1840.86 423.286 1830.65 423.286C1825.35 423.286 1821.11 423.019 1817.93 422.484C1814.75 422.083 1812.37 421.348 1810.78 420.279C1809.19 419.209 1808.33 417.873 1808.2 416.269C1808.06 414.665 1808.46 412.727 1809.39 410.454L1833.04 350.507C1831.32 349.705 1829.73 348.502 1828.27 346.898C1826.94 345.16 1825.95 343.356 1825.29 341.484L1764.27 177.079C1762.55 172.401 1761.69 168.859 1761.69 166.453C1761.69 163.913 1762.49 161.975 1764.08 160.638C1765.67 159.168 1768.32 158.165 1772.03 157.631C1775.87 157.096 1780.9 156.829 1787.13 156.829C1792.83 156.829 1797.33 156.963 1800.64 157.23C1803.96 157.364 1806.54 157.831 1808.39 158.633C1810.25 159.435 1811.64 160.705 1812.57 162.443C1813.5 164.047 1814.42 166.386 1815.35 169.46L1857.09 289.155H1857.68L1895.84 167.054C1896.64 163.579 1897.63 161.307 1898.82 160.237C1900.15 159.034 1902.27 158.165 1905.18 157.631C1908.1 157.096 1913.2 156.829 1920.48 156.829C1926.18 156.829 1930.88 157.096 1934.59 157.631C1938.44 158.165 1941.22 159.168 1942.94 160.638C1944.8 162.109 1945.72 164.113 1945.72 166.653C1945.72 169.059 1945.19 171.933 1944.13 175.274L1885.11 350.507Z" fill="white"/>
<path d="M389.662 31.2676C382.936 26.9336 375.423 23.9679 367.55 22.5401C359.677 21.1123 351.601 21.2504 343.781 22.9465C335.962 24.6425 328.554 27.8633 321.981 32.4247C315.407 36.986 309.797 42.7983 305.472 49.5294L179.486 245.292L119.088 176.532C113.857 170.364 107.45 165.299 100.24 161.634C93.0312 157.968 85.1641 155.775 77.0982 155.183C69.0324 154.59 60.9293 155.61 53.2617 158.182C45.5941 160.755 38.5157 164.829 32.4394 170.166C26.3631 175.503 21.4106 181.997 17.8709 189.269C14.3313 196.541 12.2753 204.445 11.8229 212.52C11.3706 220.595 12.531 228.679 15.2363 236.301C17.9417 243.923 22.1379 250.929 27.5801 256.912L141.272 386.343C152.013 398.604 167.103 405.929 183.088 406.964L191.546 406.901C200.946 406.201 210.056 403.328 218.158 398.51C226.26 393.691 233.132 387.057 238.235 379.131L407.893 115.456C412.224 108.731 415.189 101.219 416.616 93.3484C418.044 85.4779 417.908 77.4033 416.215 69.5857C414.522 61.768 411.305 54.3603 406.749 47.7857C402.194 41.211 396.387 35.5981 389.662 31.2676Z" fill="#2284F0"/>
<path fill-rule="evenodd" clip-rule="evenodd" d="M300.814 308.536L369.356 202.012L422.079 262.033L548.064 66.2704C552.39 59.5394 558 53.727 564.573 49.1657C571.147 44.6043 578.555 41.3835 586.374 39.6875C594.193 37.9914 602.27 37.8533 610.143 39.2811C618.015 40.7089 625.529 43.6746 632.255 48.0086C638.98 52.3392 644.786 57.952 649.342 64.5267C653.898 71.1013 657.114 78.509 658.807 86.3267C660.5 94.1443 660.637 102.219 659.209 110.089C657.781 117.96 654.817 125.472 650.486 132.197L480.828 395.872C475.725 403.798 468.852 410.432 460.751 415.251C452.649 420.069 443.539 422.942 434.139 423.642L425.681 423.705C409.696 422.67 394.606 415.345 383.864 403.084L300.814 308.536Z" fill="#0E62BD"/>
</svg>
