<svg width="213" height="48" viewBox="0 0 213 48" fill="none" xmlns="http://www.w3.org/2000/svg">
<path d="M114.975 37.7894C114.888 38.1403 114.764 38.4254 114.605 38.6447C114.46 38.8493 114.235 39.0102 113.931 39.1271C113.627 39.2294 113.236 39.2952 112.757 39.3245C112.279 39.3683 111.67 39.3903 110.931 39.3903C110.105 39.3903 109.439 39.3683 108.932 39.3245C108.439 39.2952 108.048 39.2294 107.758 39.1271C107.468 39.0102 107.258 38.8493 107.127 38.6447C106.997 38.4254 106.896 38.1403 106.823 37.7894L102.323 19.8076H102.28L98.0195 37.7894C97.9471 38.1257 97.8456 38.4034 97.7152 38.6227C97.5848 38.8274 97.3746 38.9882 97.0848 39.1052C96.8095 39.2221 96.4255 39.2952 95.9327 39.3245C95.4545 39.3683 94.8169 39.3903 94.0199 39.3903C93.1794 39.3903 92.5055 39.3683 91.9983 39.3245C91.5056 39.2952 91.1143 39.2294 90.8245 39.1271C90.5347 39.0102 90.3246 38.8493 90.1941 38.6447C90.0637 38.4254 89.955 38.1403 89.8681 37.7894L83.4773 13.0315C83.3469 12.5052 83.2745 12.0959 83.26 11.8035C83.2455 11.4965 83.3252 11.2626 83.4991 11.1017C83.6875 10.9409 83.9845 10.8459 84.3903 10.8167C84.8106 10.7728 85.3902 10.7509 86.1293 10.7509C86.8104 10.7509 87.3466 10.7655 87.7378 10.7947C88.1436 10.8094 88.4479 10.8605 88.6508 10.9482C88.8537 11.0213 88.9913 11.1383 89.0638 11.2991C89.1363 11.4453 89.1942 11.6573 89.2377 11.935L94.172 33.6668H94.1938L99.3237 12.0885C99.3817 11.8108 99.4542 11.5842 99.5411 11.4087C99.6426 11.2333 99.802 11.1017 100.019 11.014C100.251 10.9117 100.563 10.8459 100.954 10.8167C101.345 10.7728 101.867 10.7509 102.519 10.7509C103.215 10.7509 103.765 10.7655 104.171 10.7947C104.591 10.824 104.91 10.8898 105.128 10.9921C105.359 11.0798 105.526 11.2114 105.628 11.3868C105.729 11.5623 105.809 11.7962 105.867 12.0885L111.171 33.6668H111.214L116.148 12.0008C116.192 11.7669 116.25 11.5696 116.322 11.4087C116.395 11.2333 116.532 11.1017 116.735 11.014C116.938 10.9117 117.228 10.8459 117.605 10.8167C117.981 10.7728 118.51 10.7509 119.192 10.7509C119.829 10.7509 120.322 10.7728 120.67 10.8167C121.032 10.8459 121.293 10.9409 121.452 11.1017C121.612 11.2626 121.677 11.5038 121.648 11.8254C121.633 12.1324 121.561 12.5564 121.43 13.0973L114.975 37.7894Z" fill="black"/>
<path d="M143.907 38.5131C143.907 38.6593 143.863 38.7909 143.776 38.9078C143.689 39.0102 143.544 39.0979 143.342 39.171C143.139 39.2441 142.856 39.2952 142.494 39.3245C142.146 39.3683 141.711 39.3903 141.19 39.3903C140.653 39.3903 140.204 39.3683 139.842 39.3245C139.494 39.2952 139.219 39.2441 139.016 39.171C138.813 39.0979 138.668 39.0102 138.581 38.9078C138.494 38.7909 138.451 38.6593 138.451 38.5131V27.3512C138.451 26.4009 138.378 25.6553 138.233 25.1144C138.103 24.5735 137.907 24.113 137.646 23.7329C137.386 23.3382 137.045 23.0385 136.625 22.8338C136.219 22.6145 135.741 22.5049 135.19 22.5049C134.495 22.5049 133.792 22.7607 133.082 23.2724C132.372 23.7841 131.632 24.5296 130.864 25.5091V38.5131C130.864 38.6593 130.821 38.7909 130.734 38.9078C130.647 39.0102 130.495 39.0979 130.277 39.171C130.075 39.2441 129.799 39.2952 129.451 39.3245C129.104 39.3683 128.662 39.3903 128.126 39.3903C127.589 39.3903 127.147 39.3683 126.8 39.3245C126.452 39.2952 126.169 39.2441 125.952 39.171C125.749 39.0979 125.604 39.0102 125.517 38.9078C125.43 38.7909 125.387 38.6593 125.387 38.5131V9.67635C125.387 9.53016 125.43 9.39858 125.517 9.28163C125.604 9.16467 125.749 9.06964 125.952 8.99655C126.169 8.90883 126.452 8.84304 126.8 8.79919C127.147 8.75533 127.589 8.7334 128.126 8.7334C128.662 8.7334 129.104 8.75533 129.451 8.79919C129.799 8.84304 130.075 8.90883 130.277 8.99655C130.495 9.06964 130.647 9.16467 130.734 9.28163C130.821 9.39858 130.864 9.53016 130.864 9.67635V20.4874C131.806 19.5517 132.763 18.8573 133.734 18.4041C134.719 17.9363 135.741 17.7024 136.799 17.7024C138.117 17.7024 139.226 17.9217 140.124 18.3603C141.037 18.7988 141.769 19.3982 142.32 20.1585C142.885 20.9187 143.291 21.8104 143.537 22.8338C143.784 23.8425 143.907 25.0706 143.907 26.5179V38.5131Z" fill="black"/>
<path d="M165.818 38.5789C165.818 38.7836 165.745 38.9444 165.6 39.0613C165.455 39.1783 165.224 39.2587 164.905 39.3025C164.601 39.361 164.144 39.3903 163.535 39.3903C162.883 39.3903 162.405 39.361 162.101 39.3025C161.811 39.2587 161.601 39.1783 161.47 39.0613C161.354 38.9444 161.296 38.7836 161.296 38.5789V37.0219C160.499 37.8845 159.586 38.557 158.558 39.0394C157.543 39.5218 156.413 39.7631 155.167 39.7631C154.138 39.7631 153.188 39.6242 152.319 39.3464C151.464 39.0832 150.718 38.6885 150.08 38.1622C149.457 37.6213 148.971 36.9561 148.624 36.1667C148.276 35.3772 148.102 34.4562 148.102 33.4036C148.102 32.2633 148.319 31.2765 148.754 30.4432C149.203 29.5953 149.863 28.9008 150.732 28.3599C151.616 27.8044 152.71 27.395 154.014 27.1319C155.319 26.8687 156.833 26.7372 158.558 26.7372H160.449V25.553C160.449 24.939 160.383 24.4054 160.253 23.9522C160.137 23.4844 159.934 23.0969 159.644 22.7899C159.369 22.4829 158.992 22.2563 158.514 22.1101C158.05 21.9639 157.471 21.8908 156.775 21.8908C155.862 21.8908 155.043 21.9932 154.319 22.1979C153.609 22.4025 152.978 22.6291 152.428 22.8777C151.877 23.1262 151.413 23.3528 151.036 23.5575C150.674 23.7621 150.377 23.8645 150.145 23.8645C149.986 23.8645 149.841 23.8133 149.711 23.711C149.595 23.6086 149.493 23.4624 149.406 23.2724C149.334 23.0823 149.276 22.8484 149.232 22.5706C149.189 22.2929 149.167 21.9859 149.167 21.6496C149.167 21.1964 149.203 20.8383 149.276 20.5751C149.348 20.312 149.486 20.078 149.689 19.8734C149.892 19.6541 150.247 19.4202 150.754 19.1716C151.261 18.9085 151.855 18.6673 152.536 18.448C153.217 18.2287 153.957 18.0533 154.754 17.9217C155.565 17.7755 156.398 17.7024 157.253 17.7024C158.775 17.7024 160.072 17.8559 161.144 18.1629C162.231 18.4553 163.122 18.9158 163.818 19.5444C164.514 20.1585 165.021 20.9552 165.34 21.9347C165.658 22.9142 165.818 24.0764 165.818 25.4214V38.5789ZM160.449 30.202H158.362C157.478 30.202 156.724 30.2678 156.101 30.3993C155.478 30.5309 154.971 30.7283 154.58 30.9914C154.188 31.2546 153.899 31.5762 153.71 31.9563C153.536 32.3218 153.449 32.7457 153.449 33.2282C153.449 34.0469 153.703 34.6901 154.21 35.1579C154.732 35.6258 155.449 35.8597 156.362 35.8597C157.13 35.8597 157.833 35.6623 158.471 35.2676C159.123 34.8729 159.782 34.2954 160.449 33.5352V30.202Z" fill="black"/>
<path d="M190.816 28.4476C190.816 30.1874 190.627 31.7589 190.25 33.1624C189.888 34.5512 189.352 35.7354 188.642 36.7149C187.932 37.6944 187.048 38.4473 185.99 38.9736C184.932 39.4999 183.722 39.7631 182.36 39.7631C181.795 39.7631 181.273 39.7046 180.795 39.5876C180.331 39.4853 179.874 39.3245 179.425 39.1052C178.991 38.8713 178.556 38.5862 178.121 38.2499C177.686 37.9137 177.237 37.519 176.773 37.0658V46.276C176.773 46.4222 176.73 46.5538 176.643 46.6707C176.556 46.7877 176.404 46.8827 176.186 46.9558C175.984 47.0435 175.708 47.1093 175.36 47.1532C175.013 47.197 174.571 47.2189 174.034 47.2189C173.498 47.2189 173.056 47.197 172.708 47.1532C172.361 47.1093 172.078 47.0435 171.861 46.9558C171.658 46.8827 171.513 46.7877 171.426 46.6707C171.339 46.5538 171.296 46.4222 171.296 46.276V18.9524C171.296 18.8062 171.332 18.6819 171.404 18.5796C171.477 18.4626 171.6 18.3676 171.774 18.2945C171.962 18.2214 172.201 18.1702 172.491 18.141C172.795 18.0971 173.172 18.0752 173.621 18.0752C174.056 18.0752 174.418 18.0971 174.708 18.141C175.013 18.1702 175.252 18.2214 175.426 18.2945C175.614 18.3676 175.744 18.4626 175.817 18.5796C175.889 18.6819 175.926 18.8062 175.926 18.9524V21.2549C176.491 20.6701 177.041 20.1585 177.578 19.7199C178.128 19.2667 178.686 18.8939 179.251 18.6015C179.817 18.2945 180.396 18.0679 180.99 17.9217C181.599 17.7755 182.244 17.7024 182.925 17.7024C184.345 17.7024 185.555 17.9875 186.555 18.5576C187.555 19.1132 188.366 19.8807 188.99 20.8602C189.627 21.8397 190.091 22.98 190.381 24.2811C190.671 25.5822 190.816 26.9711 190.816 28.4476ZM185.12 28.8424C185.12 28.0091 185.055 27.2123 184.925 26.4521C184.809 25.6773 184.599 24.9902 184.294 24.3908C184.005 23.7914 183.613 23.3162 183.121 22.9654C182.642 22.5999 182.041 22.4171 181.316 22.4171C180.954 22.4171 180.592 22.4756 180.23 22.5926C179.882 22.6949 179.519 22.8703 179.143 23.1189C178.78 23.3674 178.404 23.689 178.012 24.0838C177.621 24.4785 177.208 24.9682 176.773 25.553V32.0002C177.541 32.9797 178.273 33.7399 178.969 34.2808C179.664 34.8071 180.389 35.0702 181.143 35.0702C181.853 35.0702 182.454 34.8875 182.947 34.522C183.454 34.1565 183.867 33.6814 184.186 33.0966C184.505 32.4972 184.736 31.8247 184.881 31.0791C185.041 30.3335 185.12 29.588 185.12 28.8424Z" fill="black"/>
<path d="M206.184 39.2587L203.836 46.1883C203.706 46.5538 203.351 46.8169 202.771 46.9777C202.191 47.1385 201.344 47.2189 200.228 47.2189C199.648 47.2189 199.184 47.1897 198.837 47.1312C198.489 47.0874 198.228 47.007 198.054 46.89C197.88 46.773 197.786 46.6269 197.771 46.4514C197.757 46.276 197.8 46.064 197.902 45.8155L200.489 39.2587C200.3 39.171 200.126 39.0394 199.967 38.864C199.822 38.6739 199.713 38.4765 199.641 38.2719L192.968 20.29C192.779 19.7783 192.685 19.3909 192.685 19.1278C192.685 18.85 192.772 18.638 192.946 18.4918C193.12 18.331 193.41 18.2214 193.815 18.1629C194.236 18.1044 194.786 18.0752 195.467 18.0752C196.09 18.0752 196.583 18.0898 196.945 18.119C197.308 18.1337 197.59 18.1848 197.793 18.2725C197.996 18.3603 198.148 18.4992 198.25 18.6892C198.351 18.8646 198.453 19.1205 198.554 19.4567L203.119 32.5484H203.184L207.358 19.1936C207.444 18.8135 207.553 18.5649 207.684 18.448C207.829 18.3164 208.06 18.2214 208.379 18.1629C208.698 18.1044 209.256 18.0752 210.053 18.0752C210.676 18.0752 211.191 18.1044 211.596 18.1629C212.017 18.2214 212.321 18.331 212.509 18.4918C212.712 18.6527 212.814 18.8719 212.814 19.1497C212.814 19.4129 212.756 19.7272 212.64 20.0927L206.184 39.2587Z" fill="black"/>
<path d="M42.6193 4.34176C41.8837 3.86774 41.0619 3.54337 40.2008 3.3872C39.3397 3.23104 38.4563 3.24614 37.6011 3.43165C36.7459 3.61715 35.9356 3.96943 35.2167 4.46832C34.4977 4.96722 33.8841 5.60294 33.411 6.33915L19.6313 27.7507L13.0253 20.2301C12.4531 19.5554 11.7523 19.0015 10.9638 18.6006C10.1753 18.1997 9.31486 17.9598 8.43265 17.895C7.55045 17.8302 6.66417 17.9417 5.82553 18.2231C4.98689 18.5044 4.21269 18.95 3.54809 19.5338C2.8835 20.1176 2.34182 20.8278 1.95467 21.6232C1.56752 22.4186 1.34264 23.2831 1.29317 24.1663C1.24369 25.0495 1.37061 25.9337 1.66651 26.7673C1.96241 27.6009 2.42137 28.3673 3.01661 29.0216L15.4516 43.1781C16.6265 44.5192 18.2769 45.3203 20.0253 45.4335L20.9504 45.4267C21.9786 45.3501 22.9749 45.0359 23.8611 44.5089C24.7472 43.9818 25.4989 43.2563 26.057 42.3894L44.6134 13.5499C45.0871 12.8143 45.4113 11.9927 45.5674 11.1319C45.7236 10.271 45.7087 9.38787 45.5235 8.53281C45.3383 7.67775 44.9866 6.86753 44.4883 6.14843C43.99 5.42933 43.3549 4.81542 42.6193 4.34176Z" fill="#2284F0"/>
<path fill-rule="evenodd" clip-rule="evenodd" d="M32.9016 34.668L40.3984 23.0169L46.1649 29.5817L59.9446 8.17016C60.4177 7.43395 61.0313 6.79822 61.7502 6.29933C62.4692 5.80043 63.2795 5.44816 64.1347 5.26265C64.9899 5.07714 65.8733 5.06204 66.7344 5.21821C67.5954 5.37437 68.4173 5.69874 69.1529 6.17277C69.8885 6.64643 70.5235 7.26033 71.0218 7.97944C71.5201 8.69854 71.8719 9.50875 72.0571 10.3638C72.2422 11.2189 72.2572 12.102 72.101 12.9629C71.9449 13.8237 71.6207 14.6453 71.1469 15.3809L52.5906 44.2204C52.0325 45.0873 51.2808 45.8128 50.3946 46.3399C49.5085 46.8669 48.5121 47.1811 47.4839 47.2577L46.5589 47.2645C44.8105 47.1513 43.1601 46.3502 41.9852 45.0091L32.9016 34.668Z" fill="#0E62BD"/>
</svg>
